<svg width="28" height="28" viewBox="0 0 28 28" fill="none" xmlns="http://www.w3.org/2000/svg">
<circle cx="14" cy="14" r="14" fill="#7784EE"/>
<path d="M8.66126 20C8.4765 19.9997 8.30037 19.9218 8.17584 19.7853C8.04902 19.6499 7.986 19.4668 8.00262 19.2821L8.16399 17.5077L15.6185 10.0558L17.9481 12.3848L10.4956 19.836L8.7212 19.9974C8.70078 19.9993 8.68036 20 8.66126 20ZM18.4131 11.9191L16.0842 9.59015L17.4811 8.19317C17.6047 8.06949 17.7723 8 17.9471 8C18.1219 8 18.2896 8.06949 18.4131 8.19317L19.8101 9.59015C19.9338 9.71369 20.0033 9.88133 20.0033 10.0561C20.0033 10.231 19.9338 10.3986 19.8101 10.5221L18.4138 11.9185L18.4131 11.9191Z" fill="white"/>
</svg>
