<svg width="16" height="17" viewBox="0 0 16 17" xmlns="http://www.w3.org/2000/svg">
    <path d="M8 2.79724C4.36364 2.79724 1.25818 5.05906 0 8.25179C1.25818 11.4445 4.36364 13.7063 8 13.7063C11.6364 13.7063 14.7418 11.4445 16 8.25179C14.7418 5.05906 11.6364 2.79724 8 2.79724ZM8 11.8882C5.99273 11.8882 4.36364 10.2591 4.36364 8.25179C4.36364 6.24451 5.99273 4.61542 8 4.61542C10.0073 4.61542 11.6364 6.24451 11.6364 8.25179C11.6364 10.2591 10.0073 11.8882 8 11.8882ZM8 6.06997C6.79273 6.06997 5.81818 7.04451 5.81818 8.25179C5.81818 9.45906 6.79273 10.4336 8 10.4336C9.20727 10.4336 10.1818 9.45906 10.1818 8.25179C10.1818 7.04451 9.20727 6.06997 8 6.06997Z"
          fill="#757374"/>
</svg>
