<?xml version="1.0" encoding="UTF-8"?>
<!-- Generated by Pixelmator Pro 3.4.1 -->
<svg width="884" height="905" viewBox="0 0 884 905" xmlns="http://www.w3.org/2000/svg">
    <g id="Group">
        <g id="g1">
            <path id="Path" fill="#cce9ff" stroke="none" opacity="0.37" d="M 82.899994 731.700012 C 84.800003 736.400024 86.899994 741.099976 89.199997 745.599976 C 123.399994 812.700012 192.799988 855 266.799988 862.599976 C 326 868.599976 383.599976 849.299988 433.099976 817.799988 C 482.5 786.400024 522.099976 742.200012 577 719.200012 C 654.400024 686.900024 740.700012 661.400024 801.400024 593 C 870.400024 515.299988 897 397.5 864.5 298.099976 C 832.900024 201.099976 728 169.700012 646.5 127 C 500 50.099976 297.100006 -1 144.600006 89.299988 C -38.099998 197.400024 -4.899994 442.799988 53 613.099976 C 66.199997 651.900024 67.800003 693.700012 82.899994 731.700012 Z"/>
            <path id="path1" fill="#ffbe55" stroke="none" d="M 176.100006 271.900024 L 175.799988 270 L 173.899994 270 C 136.899994 270 124.899994 258.099976 124.799988 258 L 123.200012 256.200012 L 121.600006 258 C 121.5 258.099976 109.600006 270 72.5 270 L 70.600006 270 L 70.300003 271.900024 C 70.199997 272.5 62.399994 332.099976 122.200012 362.700012 L 123.200012 363.200012 L 124.200012 362.700012 C 184.200012 332.099976 176.100006 272.5 176.100006 271.900024 Z M 167.100006 308.799988 C 159.700012 330.200012 144.899994 346.799988 123.100006 358.200012 C 101.300003 346.799988 86.5 330.200012 79.100006 308.799988 C 73.699997 293.099976 74 279.400024 74.399994 274.5 C 105.199997 274.099976 118.899994 265.900024 123.100006 262.5 C 127.299988 265.799988 141 274.099976 171.799988 274.5 C 172.200012 279.5 172.5 293.099976 167.100006 308.799988 Z"/>
            <g id="g2">
                <path id="path2" fill="#ffbe55" stroke="none" d="M 234.799988 195.299988 L 232.700012 189.799988 C 230.799988 189.599976 229 189.099976 227.200012 188.5 L 222.899994 192.5 L 210.5 183.599976 L 212.899994 178.200012 C 211.700012 176.700012 210.700012 175.099976 209.899994 173.400024 L 204 173.200012 L 201.5 158.099976 L 207 156 C 207.200012 154.099976 207.700012 152.299988 208.299988 150.5 L 204.299988 146.200012 L 213.200012 133.700012 L 218.600006 136.099976 C 220.100006 134.900024 221.700012 133.900024 223.399994 133.099976 L 223.600006 127.200012 L 238.700012 124.700012 L 240.799988 130.200012 C 242.700012 130.400024 244.5 130.900024 246.299988 131.5 L 250.600006 127.5 L 263 136.400024 L 260.600006 141.799988 C 261.799988 143.299988 262.799988 144.900024 263.600006 146.599976 L 269.5 146.799988 L 272 161.900024 L 266.5 164 C 266.200012 165.900024 265.799988 167.700012 265.200012 169.5 L 269.200012 173.799988 L 260.299988 186.299988 L 254.899994 183.900024 C 253.399994 185.099976 251.799988 186.099976 250.100006 186.900024 L 249.899994 192.799988 L 234.799988 195.299988 Z M 226.200012 183.700012 L 227.399994 184.200012 C 229.600006 185.099976 232 185.599976 234.399994 185.799988 L 235.700012 185.900024 L 237.5 190.599976 L 245.799988 189.200012 L 246 184.200012 L 247.200012 183.700012 C 249.399994 182.700012 251.399994 181.400024 253.299988 179.900024 L 254.299988 179.099976 L 258.899994 181.200012 L 263.799988 174.400024 L 260.299988 170.700012 L 260.799988 169.5 C 261.700012 167.299988 262.200012 164.900024 262.399994 162.5 L 262.5 161.200012 L 267.200012 159.400024 L 265.799988 151.099976 L 260.799988 150.900024 L 260.299988 149.700012 C 259.299988 147.5 258 145.5 256.5 143.599976 L 255.700012 142.599976 L 257.799988 138 L 251 133.099976 L 247.299988 136.5 L 246.100006 136 C 243.899994 135.099976 241.5 134.599976 239.100006 134.400024 L 237.799988 134.299988 L 236 129.599976 L 227.700012 131 L 227.5 136 L 226.299988 136.5 C 224.100006 137.5 222.100006 138.799988 220.200012 140.299988 L 219.200012 141.099976 L 214.600006 139 L 209.700012 145.799988 L 213.200012 149.5 L 212.700012 150.700012 C 211.799988 152.900024 211.299988 155.299988 211.100006 157.700012 L 211 159 L 206.299988 160.799988 L 207.700012 169.099976 L 212.700012 169.299988 L 213.200012 170.5 C 214.200012 172.700012 215.5 174.700012 217 176.599976 L 217.799988 177.599976 L 215.700012 182.200012 L 222.5 187.099976 L 226.200012 183.700012 Z M 236.600006 176.700012 C 233.200012 176.700012 229.799988 175.599976 227 173.599976 C 219.5 168.299988 217.799988 157.900024 223.100006 150.400024 C 228.399994 142.900024 238.799988 141.200012 246.299988 146.5 C 249.899994 149.099976 252.299988 152.900024 253.100006 157.299988 C 253.799988 161.700012 252.799988 166.099976 250.299988 169.700012 C 247.700012 173.299988 243.899994 175.700012 239.5 176.5 C 238.399994 176.599976 237.5 176.700012 236.600006 176.700012 Z M 236.600006 147.599976 C 232.700012 147.599976 228.899994 149.400024 226.5 152.799988 C 224.600006 155.5 223.799988 158.799988 224.399994 162.099976 C 225 165.400024 226.700012 168.200012 229.399994 170.099976 L 229.399994 170.099976 C 232.100006 172 235.399994 172.799988 238.700012 172.200012 C 242 171.599976 244.799988 169.900024 246.700012 167.200012 C 248.600006 164.5 249.399994 161.200012 248.799988 157.900024 C 248.200012 154.599976 246.5 151.799988 243.799988 149.900024 C 241.600006 148.400024 239.100006 147.599976 236.600006 147.599976 Z"/>
            </g>
            <g id="g3">
                <path id="path3" fill="#ffbe55" stroke="none" d="M 714.200012 358.299988 L 709.5 346 C 704.5 345.400024 699.5 344.299988 694.799988 342.599976 L 685.200012 351.599976 L 659.200012 333.099976 L 664.599976 321.099976 C 661.5 317.200012 658.799988 312.900024 656.599976 308.299988 L 643.5 307.900024 L 638.200012 276.400024 L 650.5 271.700012 C 651.099976 266.700012 652.200012 261.700012 653.900024 257 L 644.900024 247.400024 L 663.400024 221.400024 L 675.400024 226.799988 C 679.299988 223.700012 683.599976 221 688.200012 218.799988 L 688.599976 205.700012 L 720.099976 200.400024 L 724.799988 212.700012 C 729.799988 213.299988 734.799988 214.400024 739.5 216.099976 L 749.099976 207.099976 L 775.099976 225.599976 L 769.700012 237.599976 C 772.799988 241.5 775.5 245.799988 777.700012 250.400024 L 790.799988 250.799988 L 796.099976 282.299988 L 783.799988 287 C 783.200012 292 782.099976 297 780.400024 301.700012 L 789.400024 311.299988 L 770.900024 337.299988 L 758.900024 331.900024 C 755 335 750.700012 337.700012 746.099976 339.900024 L 745.700012 353 L 714.200012 358.299988 Z M 693.400024 336.200012 L 695 336.799988 C 700.299988 338.799988 705.900024 340.099976 711.599976 340.599976 L 713.400024 340.799988 L 717.700012 352 L 740.099976 348.200012 L 740.5 336.200012 L 742.099976 335.5 C 747.299988 333.200012 752.200012 330.099976 756.599976 326.400024 L 757.900024 325.299988 L 768.900024 330.200012 L 782.099976 311.700012 L 773.900024 302.900024 L 774.5 301.299988 C 776.5 296 777.799988 290.400024 778.299988 284.700012 L 778.400024 282.900024 L 789.599976 278.599976 L 785.799988 256.200012 L 773.799988 255.799988 L 773.099976 254.200012 C 770.799988 249 767.700012 244.099976 764 239.700012 L 762.900024 238.400024 L 767.799988 227.400024 L 749.299988 214.200012 L 740.5 222.400024 L 738.900024 221.799988 C 733.599976 219.799988 728 218.5 722.299988 218 L 720.5 217.900024 L 716.200012 206.700012 L 693.799988 210.5 L 693.400024 222.5 L 691.799988 223.200012 C 686.599976 225.5 681.700012 228.599976 677.299988 232.299988 L 676 233.400024 L 665 228.5 L 652 247 L 660.200012 255.799988 L 659.599976 257.400024 C 657.599976 262.700012 656.299988 268.299988 655.799988 274 L 655.700012 275.799988 L 644.5 280.099976 L 648.299988 302.5 L 660.299988 302.900024 L 661 304.5 C 663.299988 309.700012 666.400024 314.599976 670.099976 319 L 671.200012 320.299988 L 666.299988 331.299988 L 684.799988 344.5 L 693.400024 336.200012 Z M 717 315.599976 C 709.700012 315.599976 702.400024 313.400024 696 308.900024 C 679.700012 297.299988 675.900024 274.599976 687.5 258.299988 C 699.099976 242 721.799988 238.200012 738.099976 249.799988 C 754.400024 261.400024 758.200012 284.099976 746.599976 300.400024 C 739.5 310.299988 728.299988 315.599976 717 315.599976 Z M 717.099976 248.700012 C 707.5 248.700012 698 253.200012 692.099976 261.599976 C 687.299988 268.299988 685.5 276.400024 686.799988 284.5 C 688.200012 292.599976 692.599976 299.599976 699.299988 304.400024 C 713.099976 314.200012 732.299988 311 742.099976 297.200012 C 746.799988 290.5 748.700012 282.400024 747.400024 274.299988 C 746 266.200012 741.599976 259.200012 734.900024 254.400024 C 729.400024 250.5 723.200012 248.700012 717.099976 248.700012 Z"/>
            </g>
            <path id="path4" fill="#ffbe55" stroke="none" d="M 227.299988 583.299988 C 222.5 569.799988 217 554.599976 223.100006 539 C 231.299988 518 213.899994 507.200012 198.600006 497.5 C 185.399994 489.299988 173 481.5 177.200012 468.600006 C 181.799988 454.600006 181.5 443.799988 176.299988 436.700012 C 171.899994 430.700012 164.100006 427.5 153.700012 427.599976 C 145.399994 427.700012 138 417.5 130.100006 406.799988 C 120.799988 394.200012 111.300003 381.200012 99.300003 384.099976 C 97.199997 384.599976 95.5 385.799988 94.5 387.700012 C 90.300003 395.599976 96.899994 414.400024 104 434.399994 C 111.600006 456 120.299988 480.399994 114.600006 490.799988 C 108.399994 502.200012 119.600006 512.599976 131.5 523.700012 C 144.100006 535.400024 158.399994 548.700012 154.600006 565.400024 C 151 581 150.200012 586.799988 152.399994 590.200012 C 154.100006 592.900024 157.600006 593.5 162.899994 594.5 C 166.5 595.200012 171.100006 596 176.700012 597.799988 C 200.799988 605.299988 207.799988 620.900024 207.899994 621.099976 L 208.200012 621.799988 L 208.899994 621.700012 C 220.5 619.900024 227.299988 616.599976 230.5 611.299988 C 230.700012 611 230.799988 610.700012 231 610.400024 C 234.399994 603.299988 231.100006 594 227.299988 583.299988 Z"/>
            <path id="path5" fill="#2a94f4" stroke="none" d="M 165.700012 553.5 C 169.700012 559.700012 172.600006 565.099976 172.299988 572.700012 C 172.100006 579.799988 171 586.799988 170.399994 593.799988 C 170.299988 595.299988 170.200012 596.700012 170.100006 598.099976 C 168.100006 596.400024 166.200012 594.700012 164.200012 593 C 163.299988 592.900024 162.399994 592.900024 161.399994 592.900024 C 164.200012 595.200012 167.100006 597.700012 169.899994 600.200012 C 169.600006 605.099976 169.5 610 169.5 614.900024 C 169.5 617.799988 169.399994 620.900024 169.600006 623.799988 C 167 622.200012 164.299988 620.599976 161.799988 619 C 154 614.200012 146.700012 609.700012 141.100006 607.299988 C 136.799988 605.5 132 603.900024 127.399994 602.400024 C 115.399994 598.5 103.100006 594.5 99 586 C 96.899994 581.599976 97.100006 576.299988 99.600006 569.900024 C 105.899994 553.400024 100 550.599976 90.100006 545.799988 C 82.899994 542.299988 73.100006 537.599976 63.300003 525.700012 C 59 520.5 55.199997 516 51.800003 512.099976 C 41.699997 500.200012 36.100006 493.700012 36.800003 489.900024 C 37 489 37.5 488.200012 38.5 487.400024 C 39 487 39.600006 486.599976 40.399994 486.200012 C 44.199997 484.099976 48 485.700012 52.300003 487.5 C 58.100006 489.900024 65.199997 493 75.100006 487.900024 C 82.899994 483.900024 91.600006 480.200012 96.800003 483.200012 C 100.399994 485.200012 102.5 490.400024 103.199997 498.900024 C 103.399994 501.599976 104.300003 503.5 105.800003 504.599976 C 108 506.200012 111.399994 506 115.300003 505.200012 C 115.300003 505.200012 115.300003 505.200012 115.300003 505.200012 C 118 508.900024 121.5 510.700012 125.700012 512.200012 C 131.600006 514.299988 136 516.200012 140.299988 521 C 149.5 531.400024 158.399994 542 165.700012 553.5 Z"/>
            <path id="path6" fill="#ffffff" stroke="none" d="M 133.799988 570 C 127.799988 566 122.600006 556.299988 117.600006 546.900024 C 110.800003 534.099976 103.699997 520.900024 94 521.200012 C 78.399994 521.599976 64.5 503.200012 64.300003 503.099976 L 63 504.099976 C 63.600006 504.900024 77.600006 523.299988 94 522.900024 C 102.699997 522.700012 109.600006 535.400024 116.100006 547.799988 C 121.200012 557.299988 126.5 567.200012 132.799988 571.5 C 136.600006 574 143.600006 579.099976 151.899994 585.599976 C 151.899994 584.900024 151.899994 584.200012 151.899994 583.5 C 144.600006 577.400024 138.100006 572.799988 133.799988 570 Z"/>
            <path id="path7" fill="#ffbe55" stroke="none" d="M 660.799988 693.900024 C 660.799988 693.900024 669.799988 671.5 653.400024 639.700012 C 636.900024 607.900024 623.599976 612.799988 663.299988 588.299988 C 703 563.799988 663.5 486.799988 697.299988 477 C 731.099976 467.200012 760.400024 342.5 786.099976 358.400024 C 811.799988 374.299988 777.5 435.399994 795.900024 453.799988 C 814.200012 472.200012 816.700012 495.5 778.799988 514.400024 C 740.900024 533.299988 805.700012 605.5 754.299988 627.5 C 702.900024 649.5 717.700012 735.799988 660.799988 693.900024 Z"/>
            <g id="g4">
                <path id="path8" fill="#ffffff" stroke="none" d="M 676.5 717.599976 C 676.400024 717.299988 670.900024 688.700012 688.400024 651.700012 C 706.200012 614 714.700012 572.799988 711.200012 541.400024 C 709.299988 524.400024 720.200012 517.799988 730.700012 511.400024 C 741.099976 505.099976 751.799988 498.5 751.200012 481.799988 C 750.700012 466.700012 757.099976 431.299988 757.299988 429.799988 L 759.599976 430.200012 C 759.5 430.600006 753 466.899994 753.5 481.700012 C 754.099976 499.799988 742.799988 506.700012 731.900024 513.299988 C 721.5 519.599976 711.799988 525.599976 713.5 541.099976 C 717.099976 572.799988 708.5 614.5 690.5 652.599976 C 673.400024 688.900024 678.700012 716.799988 678.799988 717.099976 L 676.5 717.599976 Z"/>
            </g>
            <path id="path9" fill="#0e538c" stroke="none" d="M 813 531.799988 C 827.299988 525 842.5 528.099976 834.599976 542.400024 C 826.700012 556.700012 814.900024 557.799988 817.099976 569.099976 C 819.299988 580.400024 825.099976 592.700012 806.5 599.900024 C 787.900024 607 779.200012 605.799988 767.900024 626.700012 C 756.5 647.599976 752.599976 663.099976 733.099976 658.099976 C 713.599976 653 729.799988 627.299988 739.900024 616.5 C 739.900024 616.5 753.599976 604.900024 753.400024 584 C 753.200012 563.099976 744.599976 549.099976 771.599976 550.5 C 798.599976 551.700012 803.299988 536.400024 813 531.799988 Z"/>
            <g id="g5">
                <path id="path10" fill="#ffffff" stroke="none" d="M 730 672.700012 C 730.799988 670 749.599976 605.299988 765 598.299988 C 780.700012 591.099976 789.200012 572.299988 792.900024 561.799988 C 797.700012 548.099976 818.200012 545.400024 819 545.299988 L 819.299988 547.599976 C 819.099976 547.599976 799.400024 550.200012 795.099976 562.5 C 790.5 575.799988 781.700012 593.200012 766 600.400024 C 751.599976 607 732.5 672.700012 732.299988 673.400024 L 730 672.700012 Z"/>
            </g>
            <path id="path11" fill="#ffffff" stroke="none" d="M 234.700012 620.599976 C 203.899994 612.900024 203.5 596.299988 203.100006 580.299988 C 202.799988 567.200012 202.5 554.799988 185.799988 547.200012 C 163.700012 537.099976 163.200012 518.400024 162.700012 501.900024 C 162.299988 489.599976 162 478 152.799988 471.700012 C 130.700012 456.600006 112 420 111.800003 419.599976 L 113.5 418.700012 C 113.699997 419.099976 132.100006 455.200012 153.899994 470.100006 C 163.899994 476.899994 164.299988 489 164.600006 501.799988 C 165.100006 518.5 165.600006 535.900024 186.600006 545.400024 C 204.299988 553.5 204.700012 567.099976 205 580.200012 C 205.399994 596.200012 205.799988 611.400024 235.200012 618.700012 L 234.700012 620.599976 Z"/>
            <g id="g6">
                <g id="g7">
                    <path id="path12" fill="#f7f7f7" stroke="none" d="M 193.200012 605.799988 L 699.099976 605.799988 L 699.099976 240.599976 C 699.099976 235.400024 694.900024 231.099976 689.599976 231.099976 L 202.700012 231.099976 C 197.5 231.099976 193.200012 235.299988 193.200012 240.599976 L 193.200012 605.799988 Z"/>
                </g>
                <g id="g8">
                    <path id="path13" fill="#0b4870" stroke="#ffffff" stroke-width="0.5" d="M 680.269104 537.713257 L 211.069122 537.713257 L 211.069122 249.41333 L 680.269104 249.41333 Z"/>
                </g>
                <path id="path14" fill="#f2f2f2" stroke="none" d="M 699.099976 551.700012 L 446.200012 551.700012 L 193.399994 551.700012 L 138 758.599976 L 447.900024 758.599976 L 754.400024 758.599976 Z"/>
                <path id="path15" fill="#0b4870" stroke="#ffffff" stroke-width="0.5" d="M 212.5 588 L 243.600006 588 C 244.899994 588 245.899994 589 245.600006 590.099976 L 242.600006 603.599976 C 242.399994 604.400024 241.600006 605 240.600006 605 L 209 605 C 207.700012 605 206.700012 604 207 602.799988 L 210.5 589.299988 C 210.700012 588.599976 211.5 588 212.5 588 Z"/>
                <path id="path16" fill="#0b4870" stroke="#ffffff" stroke-width="0.5" d="M 257.799988 588 L 281.299988 588 L 278.200012 605.099976 L 254.200012 605.099976 Z"/>
                <path id="path17" fill="#0b4870" stroke="#ffffff" stroke-width="0.5" d="M 293 588 L 316.5 588 L 314.100006 605.099976 L 290.100006 605.099976 Z"/>
                <path id="path18" fill="#0b4870" stroke="#ffffff" stroke-width="0.5" d="M 328.299988 588 L 351.799988 588 L 350 605.099976 L 326 605.099976 Z"/>
                <path id="path19" fill="#0b4870" stroke="#ffffff" stroke-width="0.5" d="M 363.5 588 L 387 588 L 385.900024 605.099976 L 361.899994 605.099976 Z"/>
                <path id="path20" fill="#0b4870" stroke="#ffffff" stroke-width="0.5" d="M 398.700012 588 L 422.200012 588 L 421.799988 605.099976 L 397.799988 605.099976 Z"/>
                <path id="path21" fill="#0b4870" stroke="#ffffff" stroke-width="0.5" d="M 680.700012 588 L 645.400024 588 L 649.200012 605.099976 L 685.099976 605.099976 Z"/>
                <path id="path22" fill="#0b4870" stroke="#ffffff" stroke-width="0.5" d="M 633.700012 588 L 610.200012 588 L 613.299988 605.099976 L 637.299988 605.099976 Z"/>
                <path id="path23" fill="#0b4870" stroke="#ffffff" stroke-width="0.5" d="M 598.5 588 L 575 588 L 577.400024 605.099976 L 601.400024 605.099976 Z"/>
                <path id="path24" fill="#0b4870" stroke="#ffffff" stroke-width="0.5" d="M 563.200012 588 L 539.700012 588 L 541.5 605.099976 L 565.5 605.099976 Z"/>
                <path id="path25" fill="#0b4870" stroke="#ffffff" stroke-width="0.5" d="M 528 588 L 504.5 588 L 505.599976 605.099976 L 529.599976 605.099976 Z"/>
                <path id="path26" fill="#0b4870" stroke="#ffffff" stroke-width="0.5" d="M 492.799988 588 L 469.299988 588 L 469.700012 605.099976 L 493.700012 605.099976 Z"/>
                <path id="path27" fill="#0b4870" stroke="#ffffff" stroke-width="0.5" d="M 434 588 L 457.5 588 L 457.799988 605.099976 L 434 605.099976 Z"/>
                <path id="path28" fill="#0b4870" stroke="#ffffff" stroke-width="0.5" d="M 202.200012 617.799988 L 251.200012 617.799988 L 248.399994 635.400024 L 198.399994 635.400024 Z"/>
                <path id="path29" fill="#0b4870" stroke="#ffffff" stroke-width="0.5" d="M 688.299988 617.799988 L 627.700012 617.799988 L 631.099976 635.400024 L 693 635.400024 Z"/>
                <path id="path30" fill="#0b4870" stroke="#ffffff" stroke-width="0.5" d="M 615.5 617.799988 L 591.299988 617.799988 L 594 635.400024 L 618.799988 635.400024 Z"/>
                <path id="path31" fill="#0b4870" stroke="#ffffff" stroke-width="0.5" d="M 579.099976 617.799988 L 554.900024 617.799988 L 556.900024 635.400024 L 581.700012 635.400024 Z"/>
                <path id="path32" fill="#0b4870" stroke="#ffffff" stroke-width="0.5" d="M 542.700012 617.799988 L 518.5 617.799988 L 519.900024 635.400024 L 544.599976 635.400024 Z"/>
                <path id="path33" fill="#0b4870" stroke="#ffffff" stroke-width="0.5" d="M 506.299988 617.799988 L 482.099976 617.799988 L 482.799988 635.400024 L 507.5 635.400024 Z"/>
                <path id="path34" fill="#0b4870" stroke="#ffffff" stroke-width="0.5" d="M 194.799988 649.099976 L 245 649.099976 L 241.299988 666.599976 L 190.200012 666.599976 Z"/>
                <path id="path35" fill="#0b4870" stroke="#ffffff" stroke-width="0.5" d="M 257.5 649.099976 L 282.600006 649.099976 L 279.700012 666.599976 L 254.100006 666.599976 Z"/>
                <path id="path36" fill="#0b4870" stroke="#ffffff" stroke-width="0.5" d="M 295.200012 649.099976 L 320.299988 649.099976 L 483.299988 649.099976 L 484 666.599976 L 292.399994 666.599976 Z"/>
                <path id="path37" fill="#0b4870" stroke="#ffffff" stroke-width="0.5" d="M 495.900024 649.099976 L 521 649.099976 L 522.400024 666.599976 L 496.799988 666.599976 Z"/>
                <path id="path38" fill="#0b4870" stroke="#ffffff" stroke-width="0.5" d="M 533.5 649.099976 L 558.599976 649.099976 L 560.700012 666.599976 L 535.099976 666.599976 Z"/>
                <path id="path39" fill="#0b4870" stroke="#ffffff" stroke-width="0.5" d="M 571.200012 649.099976 L 596.299988 649.099976 L 599 666.599976 L 573.5 666.599976 Z"/>
                <path id="path40" fill="#0b4870" stroke="#ffffff" stroke-width="0.5" d="M 608.799988 649.099976 L 633.900024 649.099976 L 637.299988 666.599976 L 611.799988 666.599976 Z"/>
                <path id="path41" fill="#0b4870" stroke="#ffffff" stroke-width="0.5" d="M 646.400024 649.099976 L 696.599976 649.099976 L 701.200012 666.599976 L 650.099976 666.599976 Z"/>
                <path id="path42" fill="#0b4870" stroke="#ffffff" stroke-width="0.5" d="M 470 617.799988 L 445.900024 617.799988 L 445.900024 635.400024 L 470.400024 635.400024 Z"/>
                <path id="path43" fill="#0b4870" stroke="#ffffff" stroke-width="0.5" d="M 433.599976 617.799988 L 409.299988 617.799988 L 408.599976 635.400024 L 433.400024 635.400024 Z"/>
                <path id="path44" fill="#0b4870" stroke="#ffffff" stroke-width="0.5" d="M 397.200012 617.799988 L 372.899994 617.799988 L 371.5 635.400024 L 396.299988 635.400024 Z"/>
                <path id="path45" fill="#0b4870" stroke="#ffffff" stroke-width="0.5" d="M 360.799988 617.799988 L 336.5 617.799988 L 334.399994 635.400024 L 359.200012 635.400024 Z"/>
                <path id="path46" fill="#0b4870" stroke="#ffffff" stroke-width="0.5" d="M 324.399994 617.799988 L 300.100006 617.799988 L 297.299988 635.400024 L 322.100006 635.400024 Z"/>
                <path id="path47" fill="#0b4870" stroke="#ffffff" stroke-width="0.5" d="M 288 617.799988 L 263.700012 617.799988 L 260.299988 635.400024 L 285 635.400024 Z"/>
                <path id="path48" fill="#0b4870" stroke="#ffffff" stroke-width="0.5" d="M 213.600006 577.299988 L 217.600006 562.099976 L 229 562.099976 L 225.299988 577.299988 Z"/>
                <path id="path49" fill="#0b4870" stroke="#ffffff" stroke-width="0.5" d="M 240.399994 562.099976 L 263.200012 562.099976 L 260.100006 577.299988 L 236.799988 577.299988 Z"/>
                <path id="path50" fill="#0b4870" stroke="#ffffff" stroke-width="0.5" d="M 274.700012 562.099976 L 297.5 562.099976 L 294.899994 577.299988 L 271.700012 577.299988 Z"/>
                <path id="path51" fill="#0b4870" stroke="#ffffff" stroke-width="0.5" d="M 308.899994 562.099976 L 331.700012 562.099976 L 329.700012 577.299988 L 306.5 577.299988 Z"/>
                <path id="path52" fill="#0b4870" stroke="#ffffff" stroke-width="0.5" d="M 343.100006 562.099976 L 365.899994 562.099976 L 364.5 577.299988 L 341.299988 577.299988 Z"/>
                <path id="path53" fill="#0b4870" stroke="#ffffff" stroke-width="0.5" d="M 377.299988 562.099976 L 400.099976 562.099976 L 399.299988 577.299988 L 376.099976 577.299988 Z"/>
                <path id="path54" fill="#0b4870" stroke="#ffffff" stroke-width="0.5" d="M 411.5 562.099976 L 434.299988 562.099976 L 434.099976 577.299988 L 410.900024 577.299988 Z"/>
                <path id="path55" fill="#0b4870" stroke="#ffffff" stroke-width="0.5" d="M 445.700012 562.099976 L 468.5 562.099976 L 468.900024 577.299988 L 445.700012 577.299988 Z"/>
                <path id="path56" fill="#0b4870" stroke="#ffffff" stroke-width="0.5" d="M 479.900024 562.099976 L 502.700012 562.099976 L 503.700012 577.299988 L 480.5 577.299988 Z"/>
                <path id="path57" fill="#0b4870" stroke="#ffffff" stroke-width="0.5" d="M 514.099976 562.099976 L 537 562.099976 L 538.5 577.299988 L 515.299988 577.299988 Z"/>
                <path id="path58" fill="#0b4870" stroke="#ffffff" stroke-width="0.5" d="M 548.400024 562.099976 L 571.200012 562.099976 L 573.400024 577.299988 L 550.200012 577.299988 Z"/>
                <path id="path59" fill="#0b4870" stroke="#ffffff" stroke-width="0.5" d="M 582.599976 562.099976 L 605.400024 562.099976 L 608.200012 577.299988 L 585 577.299988 Z"/>
                <path id="path60" fill="#0b4870" stroke="#ffffff" stroke-width="0.5" d="M 616.799988 562.099976 L 639.599976 562.099976 L 643 577.299988 L 619.799988 577.299988 Z"/>
                <path id="path61" fill="#0b4870" stroke="#ffffff" stroke-width="0.5" d="M 651 562.099976 L 673.799988 562.099976 L 677.799988 577.299988 L 654.599976 577.299988 Z"/>
                <path id="path62" fill="#d3d3d3" stroke="none" d="M 738.299988 774.700012 L 154.100006 774.700012 C 145.200012 774.700012 138 767.5 138 758.599976 L 138 758.599976 L 754.400024 758.599976 L 754.400024 758.599976 C 754.400024 767.5 747.200012 774.700012 738.299988 774.700012 Z"/>
                <path id="path63" fill="#d3d3d3" stroke="none" d="M 517.900024 691.700012 C 517.299988 688.099976 514.099976 685.400024 510.5 685.400024 L 446.299988 685.400024 L 382 685.400024 C 378.299988 685.400024 375.200012 688.099976 374.599976 691.700012 L 366.600006 740.200012 C 365.799988 744.799988 369.399994 749 374 749 L 446.200012 749 L 518.400024 749 C 523.099976 749 526.599976 744.799988 525.799988 740.200012 L 517.900024 691.700012 Z"/>
                <g id="g9">
                    <g id="g10">
                        <path id="path64" fill="#f7f7f7" stroke="none" d="M 242.700012 273.900024 L 295 273.900024 L 295 279.299988 L 242.700012 279.299988 Z"/>
                    </g>
                    <g id="g11">
                        <path id="path65" fill="#f7f7f7" stroke="none" d="M 309.700012 314.200012 L 347.399994 314.200012 L 347.399994 319.599976 L 309.700012 319.599976 Z"/>
                    </g>
                    <g id="g12">
                        <path id="path66" fill="#f7f7f7" stroke="none" d="M 353.299988 314.200012 L 378.299988 314.200012 L 378.299988 319.599976 L 353.299988 319.599976 Z"/>
                    </g>
                    <g id="g13">
                        <path id="path67" fill="#f7f7f7" stroke="none" d="M 243.299988 415.599976 L 268.299988 415.599976 L 268.299988 421 L 243.299988 421 Z"/>
                    </g>
                    <g id="g14">
                        <path id="path68" fill="#f7f7f7" stroke="none" d="M 383.299988 314.200012 L 443.799988 314.200012 L 443.799988 319.599976 L 383.299988 319.599976 Z"/>
                    </g>
                    <g id="g15">
                        <path id="path69" fill="#f7f7f7" stroke="none" d="M 243.299988 395.299988 L 282.200012 395.299988 L 282.200012 400.700012 L 243.299988 400.700012 Z"/>
                    </g>
                    <g id="g16">
                        <path id="path70" fill="#f7f7f7" stroke="none" d="M 297.5 435.700012 L 321.200012 435.700012 L 321.200012 441.100006 L 297.5 441.100006 Z"/>
                    </g>
                    <g id="g17">
                        <path id="path71" fill="#f7f7f7" stroke="none" d="M 243.299988 435.700012 L 290.299988 435.700012 L 290.299988 441.100006 L 243.299988 441.100006 Z"/>
                    </g>
                    <g id="g18">
                        <path id="path72" fill="#f7f7f7" stroke="none" d="M 243.299988 455.899994 L 269.200012 455.899994 L 269.200012 461.299988 L 243.299988 461.299988 Z"/>
                    </g>
                    <g id="g19">
                        <path id="path73" fill="#f7f7f7" stroke="none" d="M 305.200012 273.900024 L 342.299988 273.900024 L 342.299988 279.299988 L 305.200012 279.299988 Z"/>
                    </g>
                    <g id="g20">
                        <path id="path74" fill="#f7f7f7" stroke="none" d="M 305.200012 334.400024 L 342.299988 334.400024 L 342.299988 339.799988 L 305.200012 339.799988 Z"/>
                    </g>
                    <g id="g21">
                        <path id="path75" fill="#f7f7f7" stroke="none" d="M 286.600006 354.5 L 302.5 354.5 L 302.5 359.900024 L 286.600006 359.900024 Z"/>
                    </g>
                    <g id="g22">
                        <path id="path76" fill="#f7f7f7" stroke="none" d="M 270.799988 375 L 306.399994 375 L 306.399994 380.400024 L 270.799988 380.400024 Z"/>
                    </g>
                    <g id="g23">
                        <path id="path77" fill="#f7f7f7" stroke="none" d="M 311.799988 375 L 361 375 L 361 380.400024 L 311.799988 380.400024 Z"/>
                    </g>
                    <g id="g24">
                        <path id="path78" fill="#f7f7f7" stroke="none" d="M 243.299988 354.700012 L 280.399994 354.700012 L 280.399994 360.099976 L 243.299988 360.099976 Z"/>
                    </g>
                    <g id="g25">
                        <path id="path79" fill="#f7f7f7" stroke="none" d="M 243.299988 375 L 265.299988 375 L 265.299988 380.400024 L 243.299988 380.400024 Z"/>
                    </g>
                    <g id="g26">
                        <path id="path80" fill="#f7f7f7" stroke="none" d="M 310 354.700012 L 330.799988 354.700012 L 330.799988 360.099976 L 310 360.099976 Z"/>
                    </g>
                    <g id="g27">
                        <path id="path81" fill="#f7f7f7" stroke="none" d="M 244 476 L 264.799988 476 L 264.799988 481.400024 L 244 481.400024 Z"/>
                    </g>
                    <g id="g28">
                        <path id="path82" fill="#f7f7f7" stroke="none" d="M 243.200012 314.200012 L 280.299988 314.200012 L 280.299988 319.599976 L 243.200012 319.599976 Z"/>
                    </g>
                    <g id="g29">
                        <path id="path83" fill="#f7f7f7" stroke="none" d="M 276 415.599976 L 313.100006 415.599976 L 313.100006 421 L 276 421 Z"/>
                    </g>
                    <g id="g30">
                        <path id="path84" fill="#f7f7f7" stroke="none" d="M 276.5 455.899994 L 313.600006 455.899994 L 313.600006 461.299988 L 276.5 461.299988 Z"/>
                    </g>
                    <g id="g31">
                        <path id="path85" fill="#f7f7f7" stroke="none" d="M 342.399994 455.899994 L 379.5 455.899994 L 379.5 461.299988 L 342.399994 461.299988 Z"/>
                    </g>
                    <g id="g32">
                        <path id="path86" fill="#f7f7f7" stroke="none" d="M 243.200012 334.400024 L 296.100006 334.400024 L 296.100006 339.799988 L 243.200012 339.799988 Z"/>
                    </g>
                    <g id="g33">
                        <path id="path87" fill="#f7f7f7" stroke="none" d="M 491.099976 273.900024 L 528.200012 273.900024 L 528.200012 279.299988 L 491.099976 279.299988 Z"/>
                    </g>
                    <g id="g34">
                        <path id="path88" fill="#f7f7f7" stroke="none" d="M 358.899994 476 L 396 476 L 396 481.400024 L 358.899994 481.400024 Z"/>
                    </g>
                    <g id="g35">
                        <path id="path89" fill="#f7f7f7" stroke="none" d="M 539.700012 273.900024 L 564.5 273.900024 L 564.5 279.299988 L 539.700012 279.299988 Z"/>
                    </g>
                    <g id="g36">
                        <path id="path90" fill="#f7f7f7" stroke="none" d="M 623.799988 294.099976 L 648.599976 294.099976 L 648.599976 299.5 L 623.799988 299.5 Z"/>
                    </g>
                    <g id="g37">
                        <path id="path91" fill="#f7f7f7" stroke="none" d="M 352.299988 273.900024 L 399.599976 273.900024 L 399.599976 279.299988 L 352.299988 279.299988 Z"/>
                    </g>
                    <g id="g38">
                        <path id="path92" fill="#f7f7f7" stroke="none" d="M 536.5 294.099976 L 583.799988 294.099976 L 583.799988 299.5 L 536.5 299.5 Z"/>
                    </g>
                    <g id="g39">
                        <path id="path93" fill="#f7f7f7" stroke="none" d="M 478.5 314.200012 L 525.799988 314.200012 L 525.799988 319.599976 L 478.5 319.599976 Z"/>
                    </g>
                    <g id="g40">
                        <path id="path94" fill="#f7f7f7" stroke="none" d="M 417 334.400024 L 464.299988 334.400024 L 464.299988 339.799988 L 417 339.799988 Z"/>
                    </g>
                    <g id="g41">
                        <path id="path95" fill="#f7f7f7" stroke="none" d="M 531.700012 314.200012 L 565.299988 314.200012 L 565.299988 319.599976 L 531.700012 319.599976 Z"/>
                    </g>
                    <g id="g42">
                        <path id="path96" fill="#f7f7f7" stroke="none" d="M 434.5 273.900024 L 481.799988 273.900024 L 481.799988 279.299988 L 434.5 279.299988 Z"/>
                    </g>
                    <g id="g43">
                        <path id="path97" fill="#f7f7f7" stroke="none" d="M 380.599976 334.400024 L 408.299988 334.400024 L 408.299988 339.799988 L 380.599976 339.799988 Z"/>
                    </g>
                    <g id="g44">
                        <path id="path98" fill="#f7f7f7" stroke="none" d="M 358.899994 415.900024 L 386.599976 415.900024 L 386.599976 421.299988 L 358.899994 421.299988 Z"/>
                    </g>
                    <g id="g45">
                        <path id="path99" fill="#f7f7f7" stroke="none" d="M 408.299988 273.900024 L 425.599976 273.900024 L 425.599976 279.299988 L 408.299988 279.299988 Z"/>
                    </g>
                    <g id="g46">
                        <path id="path100" fill="#f7f7f7" stroke="none" d="M 352.299988 334.400024 L 369.600006 334.400024 L 369.600006 339.799988 L 352.299988 339.799988 Z"/>
                    </g>
                    <g id="g47">
                        <path id="path101" fill="#f7f7f7" stroke="none" d="M 595.200012 294.099976 L 612.5 294.099976 L 612.5 299.5 L 595.200012 299.5 Z"/>
                    </g>
                    <g id="g48">
                        <path id="path102" fill="#f7f7f7" stroke="none" d="M 242.700012 294.099976 L 269.799988 294.099976 L 269.799988 299.5 L 242.700012 299.5 Z"/>
                    </g>
                    <g id="g49">
                        <path id="path103" fill="#f7f7f7" stroke="none" d="M 315 395.400024 L 336.399994 395.400024 L 336.399994 400.799988 L 315 400.799988 Z"/>
                    </g>
                    <g id="g50">
                        <path id="path104" fill="#f7f7f7" stroke="none" d="M 276.5 294.099976 L 285.200012 294.099976 L 285.200012 299.5 L 276.5 299.5 Z"/>
                    </g>
                    <g id="g51">
                        <path id="path105" fill="#f7f7f7" stroke="none" d="M 455.900024 294.099976 L 528.200012 294.099976 L 528.200012 299.5 L 455.900024 299.5 Z"/>
                    </g>
                    <g id="g52">
                        <path id="path106" fill="#f7f7f7" stroke="none" d="M 386.599976 455.899994 L 458.900024 455.899994 L 458.900024 461.299988 L 386.599976 461.299988 Z"/>
                    </g>
                    <g id="g53">
                        <path id="path107" fill="#f7f7f7" stroke="none" d="M 291.600006 294.099976 L 300.5 294.099976 L 300.5 299.5 L 291.600006 299.5 Z"/>
                    </g>
                    <g id="g54">
                        <path id="path108" fill="#f7f7f7" stroke="none" d="M 425.599976 294.099976 L 449.200012 294.099976 L 449.200012 299.5 L 425.599976 299.5 Z"/>
                    </g>
                    <g id="g55">
                        <path id="path109" fill="#f7f7f7" stroke="none" d="M 449.299988 314.200012 L 472.900024 314.200012 L 472.900024 319.599976 L 449.299988 319.599976 Z"/>
                    </g>
                    <g id="g56">
                        <path id="path110" fill="#f7f7f7" stroke="none" d="M 327.700012 476 L 351.299988 476 L 351.299988 481.400024 L 327.700012 481.400024 Z"/>
                    </g>
                    <g id="g57">
                        <path id="path111" fill="#f7f7f7" stroke="none" d="M 369.100006 294.099976 L 419.400024 294.099976 L 419.400024 299.5 L 369.100006 299.5 Z"/>
                    </g>
                    <g id="g58">
                        <path id="path112" fill="#f7f7f7" stroke="none" d="M 322.200012 415.900024 L 351.600006 415.900024 L 351.600006 421.299988 L 322.200012 421.299988 Z"/>
                    </g>
                    <g id="g59">
                        <path id="path113" fill="#f7f7f7" stroke="none" d="M 320.399994 455.899994 L 335.100006 455.899994 L 335.100006 461.299988 L 320.399994 461.299988 Z"/>
                    </g>
                    <g id="g60">
                        <path id="path114" fill="#f7f7f7" stroke="none" d="M 344.600006 294.099976 L 361.899994 294.099976 L 361.899994 299.5 L 344.600006 299.5 Z"/>
                    </g>
                    <g id="g61">
                        <path id="path115" fill="#f7f7f7" stroke="none" d="M 286.399994 314.200012 L 303.700012 314.200012 L 303.700012 319.599976 L 286.399994 319.599976 Z"/>
                    </g>
                    <g id="g62">
                        <path id="path116" fill="#f7f7f7" stroke="none" d="M 289.799988 395.400024 L 307.100006 395.400024 L 307.100006 400.799988 L 289.799988 400.799988 Z"/>
                    </g>
                    <g id="g63">
                        <path id="path117" fill="#f7f7f7" stroke="none" d="M 307.899994 294.099976 L 338.100006 294.099976 L 338.100006 299.5 L 307.899994 299.5 Z"/>
                    </g>
                </g>
            </g>
            <g id="g64">
                <g id="g65">
                    <g id="g66">
                        <path id="path118" fill="#ffb750" stroke="none" d="M 561.099976 334.599976 C 561.099976 334.599976 569.900024 349.5 573.599976 351.900024 C 578.599976 355.200012 575.5 358.5 573.099976 358.599976 C 570.700012 358.599976 558.5 359.5 555.799988 356.400024 C 553.099976 353.299988 551.799988 344.200012 549.299988 341.799988 C 546.799988 339.400024 544.200012 329.900024 550.5 327.599976 C 556 325.5 561.099976 334.599976 561.099976 334.599976 Z"/>
                    </g>
                </g>
            </g>
            <g id="g67">
                <g id="g68">
                    <g id="g69">
                        <path id="path119" fill="#ffe3ca" stroke="none" d="M 557.200012 328.099976 C 557.200012 328.099976 567.299988 345.599976 569 348.099976 C 570.700012 350.700012 565.700012 350.700012 562.599976 349.5 C 559.5 348.299988 551.700012 335.799988 550.599976 333.5 C 549.299988 330.799988 550.400024 327.700012 550.400024 327.700012 L 557.200012 328.099976 Z"/>
                    </g>
                </g>
            </g>
            <g id="g70">
                <g id="g71">
                    <g id="g72">
                        <path id="path120" fill="#ffb750" stroke="none" d="M 547 337.400024 L 549.400024 355.299988 L 550.599976 355.400024 L 550.200012 342.5 Z"/>
                    </g>
                </g>
            </g>
            <g id="g73">
                <g id="g74">
                    <g id="g75">
                        <path id="path121" fill="#ffb750" stroke="none" d="M 473.799988 334.599976 C 473.799988 334.599976 482.599976 349.5 486.299988 351.900024 C 491.299988 355.200012 488.200012 358.5 485.799988 358.599976 C 483.400024 358.599976 471.200012 359.5 468.5 356.400024 C 465.799988 353.299988 464.5 344.200012 462 341.799988 C 459.5 339.400024 456.799988 329.599976 463.200012 327.599976 C 468.799988 325.799988 473.799988 334.599976 473.799988 334.599976 Z"/>
                    </g>
                </g>
            </g>
            <g id="g76">
                <g id="g77">
                    <g id="g78">
                        <path id="path122" fill="#ffe3ca" stroke="none" d="M 470.5 328.099976 C 470.5 328.099976 480 345.5 481.799988 348.099976 C 483.5 350.700012 478.5 350.700012 475.400024 349.5 C 472.299988 348.299988 464.5 335.799988 463.400024 333.5 C 462.099976 330.799988 463.200012 327.700012 463.200012 327.700012 L 470.5 328.099976 Z"/>
                    </g>
                </g>
            </g>
            <g id="g79">
                <g id="g80">
                    <g id="g81">
                        <path id="path123" fill="#ffb750" stroke="none" d="M 459.799988 337.400024 L 462.099976 355.299988 L 463.400024 355.400024 L 463 342.5 Z"/>
                    </g>
                </g>
            </g>
            <g id="g82">
                <g id="g83">
                    <g id="g84">
                        <path id="path124" fill="#ffe3ca" stroke="none" d="M 434.799988 198.900024 L 514.400024 235.200012 C 514.400024 235.200012 523.299988 238.099976 524.299988 248 C 527.400024 278.799988 550.400024 327.599976 550.400024 327.599976 C 557.799988 331.200012 557.200012 328.099976 557.200012 328.099976 C 552.5 313.099976 546.900024 251.5 544.799988 226.799988 C 544.400024 221.599976 544.099976 218 544 216.799988 C 544 216 543.099976 215 541.599976 213.799988 C 530.700012 204.900024 485.700012 186.599976 485.700012 186.599976 C 452.200012 185.700012 434.799988 198.900024 434.799988 198.900024 Z"/>
                    </g>
                </g>
            </g>
            <g id="g85">
                <g id="g86">
                    <g id="g87">
                        <path id="path125" fill="#ffe3ca" stroke="none" d="M 419.799988 214.5 C 422.299988 236 453 233.599976 453 233.599976 L 490.200012 233.599976 C 490.200012 233.599976 480.400024 255.400024 476.599976 273.700012 C 472.599976 293.200012 463.099976 327.599976 463.099976 327.599976 C 463.099976 327.599976 463.700012 328.799988 470.5 328.099976 C 470.5 328.099976 499.700012 269.900024 510.900024 255.200012 C 513.299988 252.099976 520.200012 234.900024 521.400024 224.700012 C 521.799988 221.299988 521.599976 218.599976 520.299988 217.5 C 519 216.400024 516 214.400024 512.099976 211.900024 C 500.400024 204.5 480.200012 193.200012 468.900024 190.700012 C 453.799988 187.299988 429.900024 180.900024 429.900024 180.900024 C 429.900024 180.900024 417.299988 193 419.799988 214.5 Z"/>
                    </g>
                </g>
            </g>
            <g id="g88">
                <path id="path126" fill="#0e538c" stroke="none" d="M 445.099976 48.700012 C 445.099976 48.700012 439.5 38.099976 442.200012 26.900024 C 444.900024 15.599976 455.400024 4.400024 470.700012 9.599976 C 486 14.799988 498.400024 26.599976 489.200012 40.400024 C 480 54.099976 497.5 60.400024 493 66.900024 C 488.5 73.400024 490.200012 80.299988 492.099976 81.799988 C 494 83.299988 500.099976 88.700012 499.400024 95.200012 C 498.700012 101.599976 469.700012 76.5 469.700012 76.5 C 469.700012 76.5 454 44.599976 445.099976 48.700012 Z"/>
            </g>
            <g id="g89">
                <path id="path127" fill="#eb4747" stroke="none" d="M 491.799988 183.900024 C 491.799988 183.900024 489.5 195.099976 430 181 C 430 181 449.900024 174.400024 491.799988 183.900024 Z"/>
            </g>
            <g id="g90">
                <g id="g91">
                    <path id="path128" fill="#ffffff" stroke="none" d="M 429.299988 184.099976 C 428.400024 185.900024 427.5 187.599976 426.5 189.400024 C 448.200012 190 470 190.700012 491.700012 191.299988 C 488.299988 179.799988 489.400024 164.200012 490 152.400024 C 490.700012 137.900024 498.700012 127.900024 497.900024 113.299988 C 502.200012 114 502.900024 114.099976 507.200012 114.799988 C 500.599976 96 498.400024 86.700012 477.900024 79.5 C 471.200012 77.099976 466.900024 76.700012 459.700012 77.299988 C 436 79.299988 428.900024 79.5 417.200012 101 C 435.400024 103.900024 432.400024 110.400024 437.900024 128.599976 C 440.599976 137.400024 443.400024 147.299988 442 156.599976 C 440.599976 165.700012 429.299988 175.799988 429.299988 184.099976 Z"/>
                </g>
            </g>
            <g id="g92">
                <g id="g93">
                    <path id="path129" fill="#ffe3ca" stroke="none" d="M 467.099976 84 C 457.400024 82.200012 459.5 76.799988 459.5 76.799988 C 459.5 76.799988 459.900024 73.799988 460.099976 69.900024 C 460.099976 68.900024 460.200012 67.900024 460.200012 66.799988 C 460.200012 65.200012 460.099976 63.599976 459.900024 62 C 459.099976 55.5 477.5 59.400024 477.5 59.400024 C 477.5 59.400024 476.400024 72.599976 479 76.5 C 481.5 80.5 476.799988 85.900024 467.099976 84 Z"/>
                </g>
            </g>
            <g id="g94">
                <g id="g95">
                    <path id="path130" fill="#ffe3ca" stroke="none" d="M 448.599976 76.799988 C 448.599976 76.799988 468.200012 99.400024 475.400024 104.599976 C 475.400024 104.599976 483.700012 97.099976 478.599976 77.299988 C 478.599976 77.299988 469.200012 72.5 448.599976 76.799988 Z"/>
                </g>
            </g>
            <g id="g96">
                <path id="path131" fill="#ffe3ca" stroke="none" d="M 449.200012 22.400024 C 449.200012 22.400024 439 42 449.099976 60.5 C 459.200012 79 479 52.400024 480.200012 49.299988 C 481.5 46.200012 488.299988 28.5 474.799988 23.200012 C 461.299988 17.799988 452.099976 17.099976 449.200012 22.400024 Z"/>
            </g>
            <g id="g97">
                <path id="path132" fill="#fcd2b1" stroke="none" d="M 468.799988 62.5 C 468.799988 62.5 467 66.400024 460.099976 69.900024 C 460.099976 68.900024 460.200012 67.900024 460.200012 66.799988 C 460.200012 66.799988 464.900024 66.299988 468.799988 62.5 Z"/>
            </g>
            <g id="g98">
                <path id="path133" fill="#ffe3ca" stroke="none" d="M 366.100006 166.5 C 366.100006 166.5 361.299988 168.599976 359 167.700012 C 356.700012 166.700012 353.200012 166.5 352.100006 166.5 C 350.600006 166.5 345.899994 164.799988 346 166.700012 C 346.100006 168.5 353.600006 169.799988 355.100006 170.400024 C 356.600006 171 350.5 174.299988 349.899994 175.799988 C 349.299988 177.299988 356.299988 187.099976 360.200012 184.299988 C 364.100006 181.5 366.200012 175.900024 367 175.5 C 367.799988 175.099976 369.899994 173.599976 369.899994 173.599976 L 366.100006 166.5 Z"/>
            </g>
            <g id="g99">
                <path id="path134" fill="#ffe3ca" stroke="none" d="M 350.700012 174.900024 C 350.700012 174.900024 339.399994 184.299988 339.200012 185.599976 C 339 186.900024 339.600006 187.5 340.700012 186.599976 C 341.799988 185.799988 351.899994 177.799988 351.899994 177.799988 C 351.899994 177.799988 340.600006 191.200012 340.200012 192.200012 C 340 192.799988 341.100006 194 341.700012 193.599976 C 342.299988 193.200012 354.399994 180.599976 354.399994 180.599976 C 354.399994 180.599976 343.799988 193.099976 343.799988 194.099976 C 343.700012 194.900024 345 195.799988 345.899994 194.900024 C 346.799988 194 357.299988 183 357.299988 183 C 357.299988 183 350.200012 192.599976 350.700012 193.5 C 351 194 351.899994 195.099976 353.600006 192.599976 C 355.299988 190.099976 360.100006 184.5 360.100006 184.5 L 350.700012 174.900024 Z"/>
            </g>
            <g id="g100">
                <g id="g101">
                    <path id="path135" fill="#0e538c" stroke="none" d="M 486.299988 233.5 L 453 233.5 C 453 233.5 422.299988 236 419.799988 214.400024 C 417.299988 192.900024 429.900024 180.900024 429.900024 180.900024 C 429.900024 180.900024 446.099976 185.200012 460.299988 188.599976 C 467.400024 187.099976 475.900024 186.099976 485.900024 186.400024 C 485.900024 186.400024 545.900024 206.200012 544.099976 216.700012 C 544.099976 216.799988 519 203.400024 486.299988 233.5 Z"/>
                </g>
            </g>
            <g id="g102">
                <path id="path136" fill="#f2f2f2" stroke="none" d="M 464.599976 196.299988 L 528.200012 195.299988 L 496.099976 211.599976 Z"/>
            </g>
            <g id="g103">
                <path id="path137" fill="#ffffff" stroke="none" d="M 484.400024 188.099976 C 484.400024 188.099976 470.099976 193.599976 452.599976 188.599976 L 451.799988 182.099976 L 487.900024 184.099976 L 484.400024 188.099976 Z"/>
            </g>
            <g id="g104">
                <path id="path138" fill="#d3d3d3" stroke="none" d="M 496.099976 211.599976 L 464.599976 199.400024 L 464.599976 196.299988 L 498.599976 208.5 Z"/>
            </g>
            <g id="g105">
                <g id="g106">
                    <path id="path139" fill="#ffbe55" stroke="none" d="M 484.099976 191.200012 C 483.900024 193.5 486.299988 195.200012 488.5 194.299988 L 492.200012 192.700012 C 493.299988 192.200012 494 191.099976 493.799988 189.900024 C 492.299988 180.299988 489 142.900024 493.799988 136.400024 C 495.599976 134 496.700012 131.900024 497.299988 130.099976 C 500.5 138.299988 504.400024 148.900024 506 154.599976 L 536 194.599976 L 546.099976 197.200012 C 533.5 166.900024 523.400024 150.900024 523.400024 150.900024 C 521.400024 145.599976 515.799988 129.599976 510.799988 115.400024 C 507.599976 106.400024 504.799988 98.099976 503.200012 93.700012 C 502.400024 91.400024 500.900024 89.5 498.799988 88.299988 C 494.099976 85.5 486.400024 81.099976 479.400024 77.700012 C 479.400024 77.700012 479.299988 77.700012 479.299988 77.700012 C 479.099976 77.599976 478.900024 77.5 478.599976 77.400024 C 478.599976 77.400024 478.599976 77.400024 478.599976 77.400024 C 478.599976 77.400024 478.599976 77.400024 478.599976 77.400024 C 492 97.5 486.799988 154.599976 484.099976 191.200012 C 484.099976 191.099976 484.099976 191.099976 484.099976 191.200012 Z"/>
                </g>
                <g id="g107">
                    <path id="path140" fill="#ffbe55" stroke="none" d="M 434.5 79 C 430.200012 79.700012 419.599976 90 414 100.400024 C 407.599976 112.299988 401 125.799988 396.099976 130.200012 C 387.099976 138.400024 361.799988 167.299988 360.600006 166.599976 C 360.100006 166.299988 367.5 175.200012 368.5 175.599976 C 369 175.799988 410 140.200012 414 134.799988 C 417.700012 129.700012 427.700012 108.099976 430.700012 108.599976 C 430.700012 108.599976 430.700012 108.599976 430.700012 108.599976 C 430.700012 108.599976 430.700012 108.599976 430.700012 108.599976 C 430.900024 109.099976 434.599976 117 438 128.5 C 438.099976 128.700012 438.099976 128.900024 438.200012 129.099976 C 440.599976 137.099976 440.400024 145.900024 439.099976 155.700012 C 438.099976 163.099976 432.599976 175.200012 429.299988 181.099976 C 428.900024 181.799988 429 183.200012 429.400024 184.200012 L 429.400024 184.200012 C 429.700012 184.799988 430 185.299988 430.5 185.5 L 442.599976 190 L 445.400024 191 C 447.400024 191.799988 449.599976 191.400024 451.200012 190.200012 C 452.5 189.299988 453.5 187.799988 453.700012 186 C 456.400024 165.400024 459.799988 144.299988 462.5 136.400024 C 474.400024 101.599976 457.900024 75.400024 457.900024 75.400024 C 457.900024 75.400024 438.299988 77.599976 434.5 79 Z"/>
                </g>
            </g>
            <g id="g108">
                <path id="path141" fill="#ffbe55" stroke="none" d="M 496.099976 211.599976 L 515 160 L 575.900024 161 L 557.900024 208.599976 Z"/>
            </g>
            <g id="g109">
                <path id="path142" fill="#f2f0f0" stroke="none" d="M 534.5 182.799988 C 532.599976 186.5 533.200012 190.599976 535.799988 191.799988 C 538.400024 193.099976 541.900024 191.099976 543.799988 187.400024 C 545.700012 183.700012 545.099976 179.599976 542.5 178.400024 C 539.900024 177.099976 536.299988 179.099976 534.5 182.799988 Z"/>
            </g>
            <path id="path143" fill="#0e538c" stroke="none" d="M 497.5 85.299988 C 493 78.5 489.799988 73.099976 489.400024 63.400024 C 489.099976 57 487.700012 48.299988 483.299988 44 C 487.900024 32 482.5 28.400024 480.299988 24.5 C 477.599976 19.599976 457.599976 7.799988 449.700012 20.200012 C 441.799988 32.5 444.599976 45.400024 444.599976 45.400024 C 445.400024 38.599976 452.400024 29.400024 452.400024 29.400024 C 453.5 36.5 468.200012 48.099976 474.599976 52.799988 C 474.5 52.900024 474.400024 53.099976 474.400024 53.200012 C 470.799988 58.400024 475.299988 63.599976 476.099976 69.099976 C 476.900024 74.599976 461 89.400024 478.700012 96.799988 C 496.400024 104.299988 502 92 497.5 85.299988 Z"/>
            <g id="g110">
                <g id="g111">
                    <path id="path144" fill="#0e538c" stroke="none" d="M 175.600006 667.799988 C 175.600006 667.799988 175.200012 672 155.600006 672 C 136 672 107.5 666.900024 107.5 666.900024 L 153 662.5 C 153 662.5 170.5 661.599976 175.600006 667.799988 Z"/>
                    <path id="path145" fill="#0e538c" stroke="none" d="M 125.700012 669.299988 C 114.600006 669.299988 109.899994 675 105.5 676.799988 C 101.100006 678.599976 96.699997 681.299988 96.699997 681.200012 C 99.199997 676.299988 102.699997 676.200012 104.5 674.599976 C 106.300003 673 105.800003 673.799988 101.899994 673.5 C 99.699997 673.299988 95.699997 677.400024 92.899994 679.700012 C 90.399994 681.599976 88.899994 681.799988 88.899994 681.799988 C 88.899994 681.799988 91.800003 677.700012 95.399994 674.400024 C 99.800003 670.400024 105.300003 667.099976 106.600006 666.5 C 109 665.5 116.399994 665.299988 121.600006 666 C 127.600006 666.799988 133.700012 669.299988 125.700012 669.299988 Z"/>
                    <path id="path146" fill="#0e538c" stroke="none" d="M 107.300003 666.700012 C 107.300003 666.700012 98.800003 668.900024 97.300003 670.099976 C 96.300003 670.900024 91.899994 675.599976 91.899994 675.599976 C 91.899994 675.599976 95.100006 675.099976 96.899994 673.299988 C 98.800003 671.400024 107.300003 666.700012 107.300003 666.700012 Z"/>
                </g>
                <path id="path147" fill="#0e538c" stroke="none" d="M 159.5 659.200012 C 159.5 659.200012 180.899994 660.599976 179.399994 673.799988 C 178.600006 681.299988 173.700012 683.900024 167.200012 683.299988 C 155.200012 682.299988 141.600006 680.5 141.600006 680.5 L 135.5 660 L 159.5 659.200012 Z"/>
                <path id="path148" fill="#0e538c" stroke="none" d="M 164 661 L 185 593.299988 C 185 593.299988 188.100006 583.400024 193.200012 585.200012 C 200.5 587.900024 196.899994 596 196.299988 600.799988 C 195 610.599976 195.899994 614.900024 189.100006 638.5 C 184.899994 653.099976 181.299988 669.900024 177.700012 679.5 C 175.200012 686.099976 170.899994 676.599976 164.399994 674 C 152.200012 669.099976 164 661 164 661 Z"/>
            </g>
            <path id="path149" fill="#0e538c" stroke="none" d="M 165.600006 556.5 C 169.700012 568.299988 182.399994 574.400024 194.100006 570.099976 C 205.700012 565.799988 211.899994 552.700012 207.799988 540.900024 C 203.700012 529.099976 191 523 179.299988 527.299988 C 167.700012 531.599976 161.5 544.700012 165.600006 556.5 Z"/>
            <path id="path150" fill="#0e538c" stroke="none" d="M 142.600006 557.599976 C 149 567.200012 161.799988 569.599976 171.100006 563 L 169.799988 551.700012 C 179.100006 545 181.399994 531.799988 175 522.200012 L 170.600006 515.700012 C 164.200012 506.099976 151.399994 503.700012 142.100006 510.299988 L 137.899994 513.299988 C 128.600006 520 126.299988 533.200012 132.700012 542.799988 L 142.600006 557.599976 Z"/>
            <path id="path151" fill="#ffe3ca" stroke="none" d="M 134.200012 526.099976 C 135.299988 527.700012 136.5 529.200012 137.899994 530.700012 C 147.100006 540.700012 159.399994 544.5 167.200012 540.400024 C 170.799988 545.299988 174.899994 549.200012 178.600006 552.200012 C 182.899994 555.700012 193.899994 557.099976 193.899994 557.099976 C 200.299988 564.099976 176.299988 605 174.600006 604.799988 C 171.100006 604.5 166.600006 581.900024 169.899994 573.700012 C 171.399994 570 173.799988 565.599976 173.100006 563.599976 C 170.600006 556.700012 167.100006 557.900024 167.100006 557.900024 C 167.100006 557.900024 162.5 563.299988 158.899994 563.099976 C 155.200012 562.799988 148.799988 557 148.5 556.900024 C 147.399994 556 146.399994 554.900024 145.5 553.599976 L 135.899994 539.200012 C 133.399994 535.200012 132.799988 530.400024 134.200012 526.099976 Z"/>
            <path id="path152" fill="#f2f0f0" stroke="none" d="M 207.600006 698.400024 C 207.600006 698.400024 199.799988 707.799988 197.399994 708.799988 C 194.200012 710.200012 184.399994 707.200012 184.399994 707.200012 C 184.399994 707.200012 181.799988 664.099976 178.799988 647.299988 C 175.799988 630.5 171.399994 626.099976 171.200012 620.799988 C 170.899994 612.299988 163.799988 608.900024 165 602.299988 C 166.200012 595.700012 168.299988 572.099976 169 575.200012 C 175.100006 602 182.600006 579.700012 184.299988 576.200012 C 185.200012 574.299988 207.600006 698.400024 207.600006 698.400024 Z"/>
            <path id="path153" fill="#0e538c" stroke="none" d="M 172.100006 567.200012 C 172.100006 567.200012 162.600006 577.599976 163.299988 581.700012 C 163.899994 585.799988 159.200012 598.599976 163.899994 616.400024 C 169.200012 636.700012 172 650.5 173 663.799988 C 174 677.099976 169.5 689.299988 171.299988 705.599976 C 172.700012 718.400024 175.600006 719.099976 175.600006 719.099976 C 175.600006 719.099976 181.299988 720.5 185.299988 715.5 C 189.299988 710.599976 183.299988 667 181.299988 656.200012 C 179.299988 645.299988 172.899994 619.900024 171.200012 612.400024 C 169.100006 603.200012 169.5 593.799988 169.600006 591.099976 C 170.100006 581.599976 171.299988 575.700012 172.299988 572.099976 C 172.399994 571.599976 172.899994 566 172.100006 567.200012 Z"/>
            <path id="path154" fill="#0e538c" stroke="none" d="M 188.700012 579.400024 C 193.899994 594.400024 210.100006 602.099976 224.899994 596.599976 C 239.700012 591.099976 247.5 574.5 242.299988 559.5 C 237.100006 544.5 220.899994 536.799988 206.100006 542.299988 C 191.299988 547.700012 183.5 564.400024 188.700012 579.400024 Z"/>
            <path id="path155" fill="#fcbaa2" stroke="none" d="M 137.799988 837.200012 L 143.100006 879.5 L 120.100006 890.400024 L 107.399994 893.200012 L 130 875.700012 L 122.600006 837.5 Z"/>
            <path id="path156" fill="#0e538c" stroke="none" d="M 144.600006 885.900024 L 139.600006 887.200012 L 136.200012 884.099976 L 117.800003 893.299988 L 101.5 897.200012 C 101.5 897.200012 101.300003 895.900024 101.800003 895.200012 C 103.800003 892.5 115.300003 886.599976 115.300003 886.599976 C 115.300003 886.599976 115.5 890.5 117.100006 890.599976 C 118.700012 890.700012 132.799988 883.299988 136.100006 881.299988 C 141.700012 877.799988 142.799988 875.5 143.200012 875.799988 C 144.399994 876.400024 144.600006 885.900024 144.600006 885.900024 Z"/>
            <path id="path157" fill="#fcbaa2" stroke="none" d="M 82.300003 778.400024 L 64 814.400024 L 38.800003 813.200012 L 26.199997 809.5 L 54.100006 804.799988 L 69.300003 774 Z"/>
            <path id="path158" fill="#0e538c" stroke="none" d="M 62.5 820.799988 L 57.5 819.599976 L 55.899994 815.200012 L 33.199997 814.900024 L 19.699997 811.700012 C 19.699997 811.700012 21.300003 809.900024 22.300003 809.400024 C 25.300003 808.099976 36 807.5 36 807.5 C 36 807.5 34.899994 810.599976 36.300003 811.400024 C 37.699997 812.299988 53.300003 812.799988 57.100006 812.5 C 63.699997 812 65.600006 810.599976 65.800003 811 C 66.5 812.400024 62.5 820.799988 62.5 820.799988 Z"/>
            <path id="path159" fill="#ffb750" stroke="none" d="M 215.799988 670.700012 L 202.200012 676.799988 L 202.299988 695.5 L 108.600006 680.200012 C 108.600006 680.200012 99.699997 677.299988 94 692 C 85.899994 712.799988 65.300003 777.5 65.300003 777.5 L 78.300003 791.599976 L 119.200012 718.5 C 119.200012 718.5 203 759.200012 230.600006 750.400024 C 241.200012 747 249.299988 727.599976 247.799988 708 C 246.600006 692.599976 243.600006 678.5 243.600006 678.5 L 215.799988 670.700012 Z"/>
            <path id="path160" fill="#ffb750" stroke="none" d="M 203.899994 750 L 136.799988 745 L 142.600006 852.200012 L 122.799988 852.900024 L 108.199997 727.299988 C 108.199997 727.299988 112.100006 708.599976 124.899994 711.400024 C 137.799988 714.299988 168.799988 738.900024 203.899994 750 Z"/>
            <path id="path161" fill="#2a94f4" stroke="none" d="M 249.100006 776.900024 C 249.100006 776.900024 213.899994 737.400024 204.799988 715.099976 C 193.899994 688.400024 194.799988 654.900024 192.799988 643.799988 C 189.100006 623.400024 184.600006 583.799988 183.799988 578.900024 C 182.899994 574 186 568.5 186 568.5 C 186 568.5 183.700012 553.700012 190.299988 555.299988 C 199.799988 557.599976 209.200012 562.799988 212.5 564.400024 C 218.700012 567.200012 231.399994 641.799988 232.100006 645.400024 C 234.700012 658.400024 244.200012 670.200012 251 682.299988 C 267 711 271.100006 744.900024 271.100006 744.900024 C 271.100006 744.900024 269.100006 769.700012 249.100006 776.900024 Z"/>
            <g id="g112">
                <path id="path162" fill="#ffe3ca" stroke="none" d="M 212.799988 673.599976 C 212.799988 673.599976 212.5 678.400024 190.100006 677.299988 C 167.700012 676.099976 134.899994 668.599976 134.899994 668.599976 L 186.799988 666.200012 C 186.799988 666.200012 206.700012 666.299988 212.799988 673.599976 Z"/>
                <path id="path163" fill="#ffe3ca" stroke="none" d="M 152.5 671.200012 C 141.799988 671 137.200012 676.5 133 678.200012 C 128.799988 679.900024 124.5 682.400024 124.5 682.400024 C 126.899994 677.700012 130.299988 677.599976 132.100006 676.099976 C 133.799988 674.599976 133.399994 675.400024 129.600006 675 C 127.399994 674.799988 123.600006 678.700012 120.899994 680.900024 C 118.5 682.799988 117 682.900024 117 682.900024 C 117 682.900024 119.799988 678.900024 123.299988 675.700012 C 127.600006 671.900024 132.799988 668.700012 134.100006 668.200012 C 136.399994 667.299988 143.5 667.200012 148.600006 668 C 154.299988 668.799988 160.200012 671.400024 152.5 671.200012 Z"/>
                <path id="path164" fill="#ffe3ca" stroke="none" d="M 134.600006 668.299988 C 134.600006 668.299988 126.399994 670.299988 125 671.400024 C 124 672.200012 119.799988 676.700012 119.799988 676.700012 C 119.799988 676.700012 122.799988 676.200012 124.600006 674.5 C 126.399994 672.900024 134.600006 668.299988 134.600006 668.299988 Z"/>
            </g>
            <path id="path165" fill="#0e538c" stroke="none" d="M 194.899994 668.299988 L 228.100006 650.799988 C 228.100006 650.799988 228.200012 672 228.399994 680.099976 C 228.600006 688.200012 232 699.599976 225.600006 701.299988 C 219.200012 703 215.899994 702.099976 222.5 706 C 229.100006 709.799988 227.600006 713.799988 225.100006 717.099976 C 222.600006 720.400024 233.5 754 230.899994 755.900024 C 220.600006 742.900024 209.5 726.799988 204.700012 715.099976 C 198.600006 699.900024 196.200012 682.5 194.899994 668.299988 Z"/>
            <path id="path166" fill="#2a94f4" stroke="none" d="M 205.600006 659.799988 L 204.299988 592.200012 C 204.299988 592.200012 204.399994 571.099976 204.799988 564.900024 C 205.200012 558.5 216.100006 566 216.100006 566 C 216.100006 566 231.399994 586.700012 231.700012 636.599976 C 231.899994 670 230.100006 687.400024 214.700012 686 C 200.399994 684.700012 184.100006 682.5 184.100006 682.5 L 177 664 L 205.600006 659.799988 Z"/>
            <g id="g113">
                <path id="path167" fill="#d3d3d3" stroke="none" d="M 202.200012 695.5 L 87.899994 681.200012 L 88.199997 678.799988 L 202.5 693.099976 Z"/>
                <path id="path168" fill="#d3d3d3" stroke="none" d="M 152.100006 686.700012 C 151.899994 688.599976 150.399994 690 148.799988 689.799988 L 90.199997 682.5 C 88.600006 682.299988 86.600006 680.799988 85.199997 675.799988 L 62.600006 617.299988 C 62.899994 614.900024 64.800003 613.700012 66.399994 614.299988 L 126.299988 623.700012 C 127.899994 624.299988 129 625.700012 129.600006 628.299988 L 152.100006 686.700012 Z"/>
                <path id="path169" fill="#d3d3d3" stroke="none" d="M 144.700012 688.299988 L 145.299988 688.400024 L 202.5 695.599976 C 200.299988 696.5 196.799988 696.799988 192.899994 696.299988 L 145 690.299988 L 144.399994 690.200012 L 96.5 684.200012 C 92.600006 683.700012 89.300003 682.5 87.300003 681.200012 L 144.700012 688.299988 Z"/>
            </g>
            <path id="path170" fill="#0e538c" stroke="none" d="M 205.600006 659.799988 L 204.299988 592.200012 C 204.299988 592.200012 205.299988 586.5 207.299988 581.400024 C 207.799988 588.799988 211.200012 642.099976 211.600006 649.099976 C 212.100006 656.700012 218.299988 657.5 219.600006 660 C 221 662.400024 219.799988 662.900024 215.200012 662 C 210.700012 661 212.299988 661.799988 213.299988 664.200012 C 214.299988 666.700012 211.799988 666 203 662.799988 C 196.600006 660.5 184.299988 662.799988 178.100006 664.200012 L 205.600006 659.799988 Z"/>
            <path id="path171" fill="#cce9ff" stroke="none" d="M 600.799988 493.900024 C 589.799988 496.799988 569.5 507 565.200012 524.5 C 558.799988 550.799988 571.599976 589.299988 551.400024 627.099976 C 544.900024 639.099976 663.099976 655.299988 663.099976 655.299988 L 685.900024 522.5 C 685.900024 522.5 657.400024 493.700012 651.599976 491.700012 C 639.5 487.700012 622.799988 488.099976 600.799988 493.900024 Z"/>
            <path id="path172" fill="#2a94f4" stroke="none" d="M 686 522.599976 C 690.099976 533.200012 700.5 596.299988 688.900024 611.200012 C 687.599976 612.900024 694.900024 615.599976 693.599976 623.400024 C 693.400024 624.700012 691.200012 631 691.200012 631 L 681.799988 633.5 L 661.299988 609.799988 C 661.299988 609.799988 669.599976 596.900024 680.5 548 C 683.700012 533.599976 685.099976 520.200012 686 522.599976 Z"/>
            <path id="path173" fill="#fcd2b1" stroke="none" d="M 608.400024 598 C 608.400024 598 618.299988 624.099976 642.200012 631.099976 C 646.299988 632.299988 648.900024 636.900024 646.900024 638.400024 C 644.299988 640.299988 640.900024 640.700012 634.900024 640.700012 C 622.400024 640.700012 605.400024 636.700012 593.700012 624.900024 C 576.299988 607.5 570.799988 599.5 572.599976 590.799988 C 574.200012 581.900024 608.400024 598 608.400024 598 Z"/>
            <path id="path174" fill="#2a94f4" stroke="none" d="M 568.599976 515.700012 C 563.5 524.299988 560.599976 538.099976 560.700012 557.900024 C 560.700012 573.200012 573.5 598.299988 575.400024 606 C 575.700012 607.299988 576.5 612.799988 576.5 612.799988 L 590.599976 627.200012 L 618.900024 607.299988 L 610.299988 593.599976 L 607.700012 593.900024 C 607.700012 593.900024 606.099976 586.299988 606.5 583.400024 C 606.900024 580.5 598.700012 541 594.599976 515.700012 C 592.299988 501 573.599976 507.200012 568.599976 515.700012 Z"/>
            <path id="path175" fill="#0e538c" stroke="none" d="M 594 593.299988 L 602.299988 590.700012 L 605.700012 589.799988 C 605.900024 592.200012 607.900024 593.799988 607.900024 593.799988 L 601.400024 594.599976 L 593.900024 597 L 585.099976 603.299988 L 594 593.299988 Z"/>
            <path id="path176" fill="#fcd2b1" stroke="none" d="M 640.400024 631 L 654.799988 626.900024 C 654.799988 626.900024 658.900024 632.599976 658.099976 634 C 657.299988 635.400024 658.099976 643.799988 658.099976 643.799988 L 651.099976 650 L 645.400024 648 C 645.400024 648 645 645.400024 646.900024 645.200012 C 648.900024 644.900024 645.599976 643.5 644.599976 642.900024 C 643.599976 642.200012 635.299988 637.799988 640.400024 631 Z"/>
            <path id="path177" fill="#ff957e" stroke="none" d="M 618.200012 492.599976 C 616.599976 497.299988 619 502.599976 623.599976 504.200012 L 631.799988 507.200012 C 636.400024 508.900024 641.400024 506.299988 643 501.599976 L 650.299988 480 C 651.900024 475.299988 649.5 470 644.900024 468.299988 L 636.700012 465.299988 C 632.099976 463.600006 627.099976 466.200012 625.5 470.899994 L 618.200012 492.599976 Z"/>
            <path id="path178" fill="#fcd2b1" stroke="none" d="M 654 511.599976 C 653.200012 514.700012 650 516.599976 647 515.700012 L 622.299988 508.599976 C 619.299988 507.700012 617.5 504.5 618.299988 501.299988 L 628.400024 463.399994 C 629.200012 460.299988 632.400024 458.399994 635.400024 459.299988 L 660.099976 466.299988 C 663.099976 467.200012 664.900024 470.399994 664.099976 473.600006 L 654 511.599976 Z"/>
            <path id="path179" fill="#ffbe55" stroke="none" d="M 666.799988 469.799988 C 666.799988 469.799988 666.799988 469.799988 666.799988 469.799988 C 667 469.600006 664.5 466.799988 665.799988 461.299988 C 667.5 453.899994 662 450.899994 657.900024 450.799988 C 655.5 450.700012 647.400024 454.600006 643.099976 455.899994 C 638.799988 457.200012 639.200012 455.5 631.400024 454.100006 C 626.200012 453.100006 625 456 623.200012 460 C 621.400024 464.100006 621.200012 479.700012 621.200012 479.700012 C 621.900024 480.700012 623 481.5 623.700012 480.700012 C 624.400024 479.899994 627.200012 467.399994 629.5 463.700012 C 631.700012 460 640.700012 465.899994 645.599976 468.799988 C 650.400024 471.700012 654.700012 472.200012 662.400024 470.600006 C 663.299988 471.600006 664.099976 472.700012 664.099976 473.200012 C 664.099976 474.200012 661.900024 481.299988 661.900024 481.299988 C 661.900024 481.299988 666.200012 478.600006 667.400024 476.5 C 668 475.799988 668.200012 472.399994 666.799988 469.799988 Z"/>
            <path id="path180" fill="#fcd2b1" stroke="none" d="M 626.099976 493.400024 C 625.799988 494.400024 624.799988 495.099976 623.799988 494.799988 L 618.5 493.299988 C 617.5 493 616.900024 491.900024 617.200012 490.900024 L 619.900024 480.799988 C 620.200012 479.799988 621.200012 479.100006 622.200012 479.399994 L 627.5 480.899994 C 628.5 481.200012 629.099976 482.299988 628.799988 483.299988 L 626.099976 493.400024 Z"/>
            <path id="path181" fill="#ffbe55" stroke="none" d="M 622.799988 483.799988 C 622.799988 483.799988 618.799988 498.700012 617.5 503.700012 C 616.299988 508.200012 615.400024 518.599976 639.900024 525.599976 C 654.400024 529.700012 656.799988 518.5 657.799988 514.900024 C 658.5 512.099976 657.700012 503 656.599976 501 C 656.599976 500.900024 655 507.200012 655 507.200012 C 655 507.200012 653.599976 500.299988 646.700012 498.400024 C 635.599976 495.200012 631.200012 501.299988 626.400024 499.700012 C 622.599976 498.400024 621.5 491.200012 622.799988 483.799988 Z"/>
            <path id="path182" fill="#fcd2b1" stroke="none" d="M 639.5 506.700012 L 647.099976 508.900024 C 648.099976 509.200012 649.200012 508.599976 649.400024 507.5 L 649.700012 506.400024 L 638.400024 503.200012 L 638.099976 504.299988 C 637.900024 505.400024 638.5 506.400024 639.5 506.700012 Z"/>
            <path id="path183" fill="#0b4870" stroke="none" d="M 760 658.200012 C 756.5 668.299988 694.900024 705.400024 674.200012 703.200012 L 611.900024 706.299988 C 559 699.599976 533.900024 614.400024 533.900024 614.400024 C 536 593 588.200012 624 606.799988 633.599976 C 636.200012 648.799988 654.900024 649.599976 654.900024 649.599976 C 674.599976 651.700012 697.400024 635.900024 722.299988 635.400024 C 749.599976 634.700012 765.599976 642.299988 760 658.200012 Z"/>
            <g id="g114">
                <path id="path184" fill="#d3d3d3" stroke="none" d="M 624.599976 648 C 624.599976 647.900024 624.599976 647.900024 624.599976 648 L 624.599976 645.200012 L 731.700012 643.200012 L 731.700012 645.900024 C 731.700012 645.900024 731.700012 646 731.700012 646 L 731.400024 646.5 C 730.099976 648.900024 727.599976 649.299988 724.799988 649.400024 L 631.599976 651.200012 C 628.799988 651.299988 626.299988 650.900024 624.900024 648.599976 L 624.599976 648 Z"/>
                <path id="path185" fill="#d3d3d3" stroke="none" d="M 650.400024 647.900024 C 650.400024 647.900024 650.400024 648 650.400024 647.900024 L 650.099976 648.400024 C 649.700012 649 649.200012 649.5 648.599976 649.799988 L 632.299988 650.099976 C 629.599976 650.200012 627.200012 649.900024 625.799988 648 L 625.5 647.599976 C 625.5 647.599976 625.5 647.599976 625.400024 647.5 L 625.400024 646.200012 L 650.200012 645.700012 L 650.400024 647.900024 Z"/>
                <g id="g115">
                    <path id="path186" fill="#d3d3d3" stroke="none" d="M 664.900024 646.900024 L 718.400024 645.900024 L 718.400024 644 L 664.799988 645.099976 Z"/>
                </g>
                <g id="g116">
                    <path id="path187" fill="#d3d3d3" stroke="none" d="M 651 644.599976 L 663.900024 589.799988 C 664.200012 588.400024 665.599976 587.200012 667 587.099976 L 742.200012 585.700012 C 743.599976 585.700012 744.400024 586.799988 744.099976 588.299988 L 731.200012 643.099976 L 651 644.599976 Z"/>
                </g>
            </g>
            <path id="path188" fill="#fcd2b1" stroke="none" d="M 602.5 720.400024 C 609.900024 721.700012 615.599976 712.799988 615.599976 712.799988 L 634.799988 697.200012 L 630.700012 686.599976 L 593.299988 704 C 593.299988 704 595 719.099976 602.5 720.400024 Z"/>
            <path id="path189" fill="#ffb750" stroke="none" d="M 615.5 712.200012 C 615.5 712.200012 615.5 713.099976 614.099976 717.200012 C 612.700012 721.299988 610.900024 722.700012 609.099976 723.299988 C 601.900024 725.5 596.799988 724.400024 579.599976 727.799988 C 562.400024 731.200012 557.200012 728.599976 552.200012 720.400024 C 547.200012 712.200012 552.400024 705.700012 560.799988 705.099976 C 572.900024 704.200012 579.700012 705.599976 586 704.599976 C 592.599976 703.599976 593 702 596.900024 699.5 C 600.5 697.200012 603.900024 711 600.5 714.200012 C 597.400024 717 613 717.400024 615.5 712.200012 Z"/>
            <path id="path190" fill="#ffffff" stroke="none" d="M 611.900024 720.099976 C 604.799988 722.299988 599.599976 721.200012 582.400024 724.599976 C 565.200012 728 560 725.400024 555 717.200012 C 552.700012 713.400024 552.599976 710 553.900024 707.400024 C 550.099976 710.099976 548.799988 714.799988 552.200012 720.400024 C 557.200012 728.599976 562.400024 731.200012 579.599976 727.799988 C 596.799988 724.400024 602 725.5 609.099976 723.299988 C 610.5 722.900024 611.900024 721.900024 613.099976 719.599976 C 612.700012 719.799988 612.299988 720 611.900024 720.099976 Z"/>
            <path id="path191" fill="#e9d6b8" stroke="none" d="M 615.5 712.5 C 615.5 712.299988 615.5 712.299988 615.5 712.299988 C 615.5 712.400024 615.400024 712.5 615.299988 712.599976 C 615.400024 712.5 615.5 712.5 615.5 712.5 Z"/>
            <g id="g117">
                <path id="path192" fill="#ffffff" stroke="none" d="M 578.400024 718.599976 C 577.900024 718.799988 577.400024 717.700012 577.200012 716.200012 C 576.900024 713.099976 576.200012 710.099976 575.200012 707 C 574.700012 705.5 574.700012 704.200012 575.299988 704 C 575.900024 703.799988 576.900024 704.900024 577.299988 706.400024 C 578.299988 709.400024 578.900024 712.5 579.200012 715.5 C 579.400024 717 578.900024 718.400024 578.400024 718.599976 Z"/>
                <path id="path193" fill="#ffffff" stroke="none" d="M 583.700012 717.599976 C 583.099976 717.700012 582.599976 716.700012 582.400024 715.299988 C 582.099976 712.400024 581.400024 709.5 580.400024 706.700012 C 579.900024 705.299988 579.900024 704.099976 580.599976 704 C 581.200012 703.900024 582.200012 705 582.700012 706.400024 C 583.599976 709.200012 584.299988 712.099976 584.599976 714.900024 C 584.700012 716.299988 584.299988 717.5 583.700012 717.599976 Z"/>
                <path id="path194" fill="#ffffff" stroke="none" d="M 589.299988 717.400024 C 588.700012 717.5 588.099976 716.400024 587.900024 714.900024 C 587.400024 711.900024 586.700012 709 585.599976 706 C 585.099976 704.5 585.099976 703.299988 585.700012 703.299988 C 586.400024 703.299988 587.400024 704.400024 587.900024 705.900024 C 589 708.799988 589.700012 711.799988 590.099976 714.700012 C 590.299988 716.099976 589.900024 717.299988 589.299988 717.400024 Z"/>
            </g>
            <path id="path195" fill="#0e538c" stroke="none" d="M 603.799988 694.900024 C 603.799988 694.900024 735.5 638.799988 743 638.700012 C 768.400024 638.5 762.599976 665.099976 749.700012 677.700012 C 734.5 692.5 618.900024 719.599976 618.900024 719.599976 L 603.799988 694.900024 Z"/>
            <path id="path196" fill="#fcd2b1" stroke="none" d="M 656 704.700012 L 620 669.299988 L 635.400024 653.599976 L 674.599976 696.400024 Z"/>
            <path id="path197" fill="#0e538c" stroke="none" d="M 663.400024 676.900024 C 663.400024 676.900024 571.900024 590 565.799988 587.400024 C 544.900024 578.599976 532 602.5 532.700012 610.799988 C 533.700012 621.5 626.599976 708.5 626.599976 708.5 L 663.400024 676.900024 Z"/>
            <g id="g118">
                <path id="path198" fill="#ffb750" stroke="none" d="M 717.599976 707.400024 C 719.700012 709.400024 720.099976 715.5 720.099976 715.5 C 720.099976 715.5 689.599976 727.5 678.900024 727.700012 C 676.099976 727.799988 671.099976 726.599976 666.299988 725.200012 C 665.5 725 663.599976 722.799988 662.799988 722.599976 C 661.299988 722.200012 661 723.599976 659.799988 723.200012 C 656.599976 722.099976 654.200012 721.200012 654.099976 721 C 647.599976 706.799988 649.799988 699.799988 649.799988 699.799988 C 649.799988 699.799988 663.799988 704 661.400024 700.700012 C 656.299988 693.700012 671 686.599976 674.200012 690.299988 C 687.400024 705.200012 711.400024 701.5 717.599976 707.400024 Z"/>
                <path id="path199" fill="#ffffff" stroke="none" d="M 719.299988 710.400024 C 709.900024 714.299988 690.200012 722.200012 686.299988 722.5 C 670.200012 723.700012 659 717.799988 651.5 714.299988 C 652.200012 716.299988 653 718.599976 654.099976 721 C 654.200012 721.200012 656.5 722.099976 659.799988 723.200012 C 661.099976 723.599976 661.400024 722.099976 662.799988 722.599976 C 663.599976 722.799988 665.400024 725 666.299988 725.200012 C 671.099976 726.599976 676.099976 727.700012 678.900024 727.700012 C 689.599976 727.5 720.099976 715.5 720.099976 715.5 C 720.099976 715.5 720.099976 712.700012 719.299988 710.400024 Z"/>
                <g id="g119">
                    <path id="path200" fill="#ffffff" stroke="none" d="M 697.799988 701.200012 C 698.099976 701.799988 696.900024 702.400024 695.200012 702.799988 C 691.700012 703.5 688.299988 704.599976 684.900024 706 C 683.200012 706.700012 681.700012 706.900024 681.5 706.299988 C 681.299988 705.700012 682.400024 704.599976 684.099976 703.900024 C 687.400024 702.5 690.900024 701.5 694.299988 700.799988 C 695.900024 700.299988 697.5 700.599976 697.799988 701.200012 Z"/>
                    <path id="path201" fill="#ffffff" stroke="none" d="M 690.900024 698.700012 C 691.200012 699.299988 690 700.099976 688.299988 700.599976 C 684.900024 701.599976 681.599976 703 678.299988 704.700012 C 676.700012 705.5 675.200012 705.799988 675 705.200012 C 674.799988 704.599976 675.900024 703.299988 677.5 702.5 C 680.700012 700.900024 684 699.5 687.400024 698.599976 C 689.099976 697.900024 690.700012 698.099976 690.900024 698.700012 Z"/>
                    <path id="path202" fill="#ffffff" stroke="none" d="M 684.299988 696.5 C 684.5 697.099976 683.400024 698 681.799988 698.599976 C 678.5 699.900024 675.299988 701.5 672.200012 703.400024 C 670.700012 704.400024 669.299988 704.700012 669.099976 704 C 668.900024 703.400024 669.900024 702 671.5 701 C 674.599976 699.099976 677.799988 697.5 681 696.299988 C 682.599976 695.799988 684.099976 695.900024 684.299988 696.5 Z"/>
                </g>
            </g>
        </g>
    </g>
</svg>
