<svg width="28" height="28" viewBox="0 0 28 28" fill="none" xmlns="http://www.w3.org/2000/svg">
<circle cx="14" cy="14" r="14" fill="#F85640"/>
<path d="M15.75 8.35L15.51 15.595H13.74L13.485 8.35H15.75ZM14.67 19.105C14.29 19.105 13.975 18.99 13.725 18.76C13.485 18.52 13.365 18.225 13.365 17.875C13.365 17.525 13.485 17.235 13.725 17.005C13.975 16.765 14.29 16.645 14.67 16.645C15.04 16.645 15.345 16.765 15.585 17.005C15.825 17.235 15.945 17.525 15.945 17.875C15.945 18.225 15.825 18.52 15.585 18.76C15.345 18.99 15.04 19.105 14.67 19.105Z" fill="white"/>
</svg>
